<?xml version="1.0" encoding="UTF-8" standalone="no"?>
<svg
   xmlns:dc="http://purl.org/dc/elements/1.1/"
   xmlns:cc="http://creativecommons.org/ns#"
   xmlns:rdf="http://www.w3.org/1999/02/22-rdf-syntax-ns#"
   xmlns:svg="http://www.w3.org/2000/svg"
   xmlns="http://www.w3.org/2000/svg"
   viewBox="0 0 1706.6667 1066.6667"
   height="1066.6667"
   width="1706.6667"
   xml:space="preserve"
   id="svg2"
   version="1.1"><metadata
     id="metadata8"><rdf:RDF><cc:Work
         rdf:about=""><dc:format>image/svg+xml</dc:format><dc:type
           rdf:resource="http://purl.org/dc/dcmitype/StillImage" /></cc:Work></rdf:RDF></metadata><defs
     id="defs6"><clipPath
       id="clipPath18"
       clipPathUnits="userSpaceOnUse"><path
         id="path16"
         d="M 0,800 H 1280 V 0 H 0 Z" /></clipPath><clipPath
       id="clipPath32"
       clipPathUnits="userSpaceOnUse"><path
         id="path30"
         d="m -216.105,188.86 h 432.21 v -377.72 h -432.21 z" /></clipPath><radialGradient
       id="radialGradient72"
       spreadMethod="pad"
       gradientTransform="matrix(127.45,0,0,110.8815,154.38499,37.846703)"
       gradientUnits="userSpaceOnUse"
       r="1"
       cy="0"
       cx="0"
       fy="-0.071557403"
       fx="4.3816299e-18"><stop
         id="stop46"
         offset="0"
         style="stop-opacity:1;stop-color:#feffff" /><stop
         id="stop48"
         offset="0.4"
         style="stop-opacity:1;stop-color:#feffff" /><stop
         id="stop50"
         offset="0.51"
         style="stop-opacity:1;stop-color:#f9fcfc" /><stop
         id="stop52"
         offset="0.62"
         style="stop-opacity:1;stop-color:#edf3f5" /><stop
         id="stop54"
         offset="0.7"
         style="stop-opacity:1;stop-color:#dee9ec" /><stop
         id="stop56"
         offset="0.72"
         style="stop-opacity:1;stop-color:#d8e4e8" /><stop
         id="stop58"
         offset="0.76"
         style="stop-opacity:1;stop-color:#ccd8df" /><stop
         id="stop60"
         offset="0.8"
         style="stop-opacity:1;stop-color:#c8d5dd" /><stop
         id="stop62"
         offset="0.83"
         style="stop-opacity:1;stop-color:#ccd6de" /><stop
         id="stop64"
         offset="0.85"
         style="stop-opacity:1;stop-color:#d8dbe2" /><stop
         id="stop66"
         offset="0.88"
         style="stop-opacity:1;stop-color:#ede3e9" /><stop
         id="stop68"
         offset="0.9"
         style="stop-opacity:1;stop-color:#ffebef" /><stop
         id="stop70"
         offset="1"
         style="stop-opacity:1;stop-color:#ffebef" /></radialGradient><radialGradient
       id="radialGradient114"
       spreadMethod="pad"
       gradientTransform="matrix(127.45,0,0,127.45,-151.72501,37.270004)"
       gradientUnits="userSpaceOnUse"
       r="1"
       cy="0"
       cx="0"
       fy="-0.071557403"
       fx="4.3816299e-18"><stop
         id="stop88"
         offset="0"
         style="stop-opacity:1;stop-color:#feffff" /><stop
         id="stop90"
         offset="0.4"
         style="stop-opacity:1;stop-color:#feffff" /><stop
         id="stop92"
         offset="0.51"
         style="stop-opacity:1;stop-color:#f9fcfc" /><stop
         id="stop94"
         offset="0.62"
         style="stop-opacity:1;stop-color:#edf3f5" /><stop
         id="stop96"
         offset="0.7"
         style="stop-opacity:1;stop-color:#dee9ec" /><stop
         id="stop98"
         offset="0.72"
         style="stop-opacity:1;stop-color:#d8e4e8" /><stop
         id="stop100"
         offset="0.76"
         style="stop-opacity:1;stop-color:#ccd8df" /><stop
         id="stop102"
         offset="0.8"
         style="stop-opacity:1;stop-color:#c8d5dd" /><stop
         id="stop104"
         offset="0.83"
         style="stop-opacity:1;stop-color:#ccd6de" /><stop
         id="stop106"
         offset="0.85"
         style="stop-opacity:1;stop-color:#d8dbe2" /><stop
         id="stop108"
         offset="0.88"
         style="stop-opacity:1;stop-color:#ede3e9" /><stop
         id="stop110"
         offset="0.9"
         style="stop-opacity:1;stop-color:#ffebef" /><stop
         id="stop112"
         offset="1"
         style="stop-opacity:1;stop-color:#ffebef" /></radialGradient><radialGradient
       id="radialGradient156"
       spreadMethod="pad"
       gradientTransform="matrix(384.44,0,0,269.108,4.0350037,53.954002)"
       gradientUnits="userSpaceOnUse"
       r="1"
       cy="0"
       cx="0"
       fy="0"
       fx="0"><stop
         id="stop130"
         offset="0"
         style="stop-opacity:1;stop-color:#feffff" /><stop
         id="stop132"
         offset="0.4"
         style="stop-opacity:1;stop-color:#feffff" /><stop
         id="stop134"
         offset="0.51"
         style="stop-opacity:1;stop-color:#f9fcfc" /><stop
         id="stop136"
         offset="0.62"
         style="stop-opacity:1;stop-color:#edf3f5" /><stop
         id="stop138"
         offset="0.7"
         style="stop-opacity:1;stop-color:#dee9ec" /><stop
         id="stop140"
         offset="0.72"
         style="stop-opacity:1;stop-color:#d8e4e8" /><stop
         id="stop142"
         offset="0.76"
         style="stop-opacity:1;stop-color:#ccd8df" /><stop
         id="stop144"
         offset="0.8"
         style="stop-opacity:1;stop-color:#c8d5dd" /><stop
         id="stop146"
         offset="0.83"
         style="stop-opacity:1;stop-color:#ccd6de" /><stop
         id="stop148"
         offset="0.85"
         style="stop-opacity:1;stop-color:#d8dbe2" /><stop
         id="stop150"
         offset="0.88"
         style="stop-opacity:1;stop-color:#ede3e9" /><stop
         id="stop152"
         offset="0.9"
         style="stop-opacity:1;stop-color:#ffebef" /><stop
         id="stop154"
         offset="1"
         style="stop-opacity:1;stop-color:#ffebef" /></radialGradient><radialGradient
       id="radialGradient192"
       spreadMethod="pad"
       gradientTransform="matrix(32.119999,0,0,46.895199,-81.404999,-52.200802)"
       gradientUnits="userSpaceOnUse"
       r="1"
       cy="0"
       cx="0"
       fy="0"
       fx="0"><stop
         id="stop180"
         offset="0"
         style="stop-opacity:1;stop-color:#ff6600" /><stop
         id="stop182"
         offset="0.5"
         style="stop-opacity:1;stop-color:#ff4500" /><stop
         id="stop184"
         offset="0.7"
         style="stop-opacity:1;stop-color:#fc4301" /><stop
         id="stop186"
         offset="0.82"
         style="stop-opacity:1;stop-color:#f43f07" /><stop
         id="stop188"
         offset="0.92"
         style="stop-opacity:1;stop-color:#e53812" /><stop
         id="stop190"
         offset="1"
         style="stop-opacity:1;stop-color:#d4301f" /></radialGradient><radialGradient
       id="radialGradient220"
       spreadMethod="pad"
       gradientTransform="matrix(-32.119999,0,0,46.895199,81.714829,-52.200802)"
       gradientUnits="userSpaceOnUse"
       r="1"
       cy="0"
       cx="0"
       fy="0"
       fx="0"><stop
         id="stop208"
         offset="0"
         style="stop-opacity:1;stop-color:#ff6600" /><stop
         id="stop210"
         offset="0.5"
         style="stop-opacity:1;stop-color:#ff4500" /><stop
         id="stop212"
         offset="0.7"
         style="stop-opacity:1;stop-color:#fc4301" /><stop
         id="stop214"
         offset="0.82"
         style="stop-opacity:1;stop-color:#f43f07" /><stop
         id="stop216"
         offset="0.92"
         style="stop-opacity:1;stop-color:#e53812" /><stop
         id="stop218"
         offset="1"
         style="stop-opacity:1;stop-color:#d4301f" /></radialGradient><radialGradient
       id="radialGradient260"
       spreadMethod="pad"
       gradientTransform="matrix(113.26,0,0,74.751602,-0.1750031,-150.9532)"
       gradientUnits="userSpaceOnUse"
       r="1"
       cy="0"
       cx="0"
       fy="0"
       fx="0"><stop
         id="stop252"
         offset="0"
         style="stop-opacity:1;stop-color:#172e35" /><stop
         id="stop254"
         offset="0.29"
         style="stop-opacity:1;stop-color:#0e1c21" /><stop
         id="stop256"
         offset="0.73"
         style="stop-opacity:1;stop-color:#030708" /><stop
         id="stop258"
         offset="1"
         style="stop-opacity:1;stop-color:#000000" /></radialGradient><radialGradient
       id="radialGradient302"
       spreadMethod="pad"
       gradientTransform="matrix(99.419998,0,0,97.431603,99.705002,185.3994)"
       gradientUnits="userSpaceOnUse"
       r="1"
       cy="0"
       cx="0"
       fy="0"
       fx="0"><stop
         id="stop276"
         offset="0"
         style="stop-opacity:1;stop-color:#feffff" /><stop
         id="stop278"
         offset="0.4"
         style="stop-opacity:1;stop-color:#feffff" /><stop
         id="stop280"
         offset="0.51"
         style="stop-opacity:1;stop-color:#f9fcfc" /><stop
         id="stop282"
         offset="0.62"
         style="stop-opacity:1;stop-color:#edf3f5" /><stop
         id="stop284"
         offset="0.7"
         style="stop-opacity:1;stop-color:#dee9ec" /><stop
         id="stop286"
         offset="0.72"
         style="stop-opacity:1;stop-color:#d8e4e8" /><stop
         id="stop288"
         offset="0.76"
         style="stop-opacity:1;stop-color:#ccd8df" /><stop
         id="stop290"
         offset="0.8"
         style="stop-opacity:1;stop-color:#c8d5dd" /><stop
         id="stop292"
         offset="0.83"
         style="stop-opacity:1;stop-color:#ccd6de" /><stop
         id="stop294"
         offset="0.85"
         style="stop-opacity:1;stop-color:#d8dbe2" /><stop
         id="stop296"
         offset="0.88"
         style="stop-opacity:1;stop-color:#ede3e9" /><stop
         id="stop298"
         offset="0.9"
         style="stop-opacity:1;stop-color:#ffebef" /><stop
         id="stop300"
         offset="1"
         style="stop-opacity:1;stop-color:#ffebef" /></radialGradient><radialGradient
       id="radialGradient330"
       spreadMethod="pad"
       gradientTransform="matrix(81.489998,0,0,81.489998,58.275009,85.040001)"
       gradientUnits="userSpaceOnUse"
       r="1"
       cy="0"
       cx="0"
       fy="0"
       fx="0"><stop
         id="stop318"
         offset="0"
         style="stop-opacity:1;stop-color:#7a9299" /><stop
         id="stop320"
         offset="0.48"
         style="stop-opacity:1;stop-color:#7a9299" /><stop
         id="stop322"
         offset="0.67"
         style="stop-opacity:1;stop-color:#172e35" /><stop
         id="stop324"
         offset="0.75"
         style="stop-opacity:1;stop-color:#000000" /><stop
         id="stop326"
         offset="0.82"
         style="stop-opacity:1;stop-color:#172e35" /><stop
         id="stop328"
         offset="1"
         style="stop-opacity:1;stop-color:#172e35" /></radialGradient></defs><g
     transform="matrix(1.3333333,0,0,-1.3333333,0,1066.6667)"
     id="g10"><g
       id="g12"><g
         clip-path="url(#clipPath18)"
         id="g14"><g
           transform="translate(209.7051,566.4795)"
           id="g20"><path
             id="path22"
             style="fill:#ff4500;fill-opacity:1;fill-rule:nonzero;stroke:none"
             d="m 0,0 v 0 c -91.949,0 -166.479,-74.531 -166.479,-166.479 0,-45.967 18.636,-87.587 48.756,-117.723 l -31.708,-31.708 c -6.289,-6.289 -1.834,-17.049 7.06,-17.049 H 0 c 91.949,0 166.479,74.53 166.479,166.48 C 166.479,-74.531 91.949,0 0,0" /></g><g
           transform="matrix(0.6165899,0,0,0.6165899,209.70815,401.39658)"
           id="g24"><g
             id="g26"><g
               clip-path="url(#clipPath32)"
               id="g28"><g
                 id="g34"><g
                   id="g36"><g
                     id="g42"><g
                       id="g44"><path
                         id="path74"
                         style="fill:url(#radialGradient72);stroke:none"
                         d="m 153.055,63.36 c 34.822,0 63.05,-28.228 63.05,-63.05 0,-34.822 -28.228,-63.05 -63.05,-63.05 -34.822,0 -63.05,28.228 -63.05,63.05 0,34.822 28.228,63.05 63.05,63.05" /></g></g></g></g><g
                 id="g76"><g
                   id="g78"><g
                     id="g84"><g
                       id="g86"><path
                         id="path116"
                         style="fill:url(#radialGradient114);stroke:none"
                         d="m -153.055,63.36 c 34.822,0 63.05,-28.228 63.05,-63.05 0,-34.822 -28.228,-63.05 -63.05,-63.05 -34.822,0 -63.05,28.228 -63.05,63.05 0,34.822 28.228,63.05 63.05,63.05" /></g></g></g></g><g
                 id="g118"><g
                   id="g120"><g
                     id="g126"><g
                       id="g128"><path
                         id="path158"
                         style="fill:url(#radialGradient156);stroke:none"
                         d="m 0.155,81.14 c 99.411,0 180,-60.442 180,-135 0,-74.558 -80.589,-135 -180,-135 -99.411,0 -180,60.442 -180,135 0,74.558 80.589,135 180,135" /></g></g></g></g><g
                 transform="translate(-53.065,-40.73)"
                 id="g160"><path
                   id="path162"
                   style="fill:#842123;fill-opacity:1;fill-rule:nonzero;stroke:none"
                   d="m 0,0 c -1.05,-22.87 -16.23,-31.17 -33.91,-31.17 -17.68,0 -31.15,11.71 -30.09,34.58 1.05,22.87 16.23,38.01 33.91,38.01 C -12.41,41.42 1.06,22.88 0,0 Z" /></g><g
                 transform="translate(117.375,-37.32)"
                 id="g164"><path
                   id="path166"
                   style="fill:#842123;fill-opacity:1;fill-rule:nonzero;stroke:none"
                   d="m 0,0 c 1.05,-22.87 -12.42,-34.58 -30.09,-34.58 -17.67,0 -32.85,8.3 -33.91,31.17 -1.05,22.87 12.42,41.42 30.09,41.42 C -16.24,38.01 -1.06,22.88 0,0 Z" /></g><g
                 id="g168"><g
                   id="g170"><g
                     id="g176"><g
                       id="g178"><path
                         id="path194"
                         style="fill:url(#radialGradient192);stroke:none"
                         d="m -53.055,-42.73 c -0.99,-21.41 -15.19,-29.17 -31.73,-29.17 -16.54,0 -29.15,11.63 -28.16,33.03 0.99,21.41 15.19,35.41 31.73,35.41 16.54,0 29.15,-17.86 28.16,-39.27 z" /></g></g></g></g><g
                 id="g196"><g
                   id="g198"><g
                     id="g204"><g
                       id="g206"><path
                         id="path222"
                         style="fill:url(#radialGradient220);stroke:none"
                         d="m 53.365,-42.73 c 0.99,-21.41 15.19,-29.17 31.73,-29.17 16.54,0 29.15,11.63 28.16,33.03 -0.99,21.41 -15.19,35.41 -31.73,35.41 -16.54,0 -29.15,-17.86 -28.16,-39.27 z" /></g></g></g></g><g
                 transform="translate(-70.915,-15.54)"
                 id="g224"><path
                   id="path226"
                   style="fill:#ffc49c;fill-opacity:1;fill-rule:nonzero;stroke:none"
                   d="m 0,0 c 3.866,0 7,-3.421 7,-7.64 0,-4.219 -3.134,-7.64 -7,-7.64 -3.866,0 -7,3.421 -7,7.64 C -7,-3.421 -3.866,0 0,0" /></g><g
                 transform="translate(95.535,-15.54)"
                 id="g228"><path
                   id="path230"
                   style="fill:#ffc49c;fill-opacity:1;fill-rule:nonzero;stroke:none"
                   d="m 0,0 c 3.866,0 7,-3.421 7,-7.64 0,-4.219 -3.134,-7.64 -7,-7.64 -3.866,0 -7,3.421 -7,7.64 C -7,-3.421 -3.866,0 0,0" /></g><g
                 transform="translate(0.155,-87.16)"
                 id="g232"><path
                   id="path234"
                   style="fill:#bbcfda;fill-opacity:1;fill-rule:nonzero;stroke:none"
                   d="m 0,0 c -22.32,0 -43.71,-1.08 -63.49,-3.04 -3.38,-0.34 -5.52,-3.78 -4.21,-6.86 11.08,-25.97 37.22,-44.21 67.7,-44.21 30.48,0 56.62,18.24 67.7,44.21 1.31,3.08 -0.83,6.52 -4.21,6.86 C 43.71,-1.07 22.32,0 0,0 Z" /></g><g
                 transform="translate(0.155,-92.12)"
                 id="g236"><path
                   id="path238"
                   style="fill:#ffffff;fill-opacity:1;fill-rule:nonzero;stroke:none"
                   d="m 0,0 c -22.25,0 -43.57,-1.09 -63.29,-3.09 -3.37,-0.34 -5.51,-3.84 -4.2,-6.97 11.05,-26.38 37.1,-44.91 67.49,-44.91 30.39,0 56.44,18.53 67.49,44.91 1.31,3.12 -0.83,6.62 -4.2,6.97 C 43.57,-1.09 22.25,0 0,0 Z" /></g><g
                 id="g240"><g
                   id="g242"><g
                     id="g248"><g
                       id="g250"><path
                         id="path262"
                         style="fill:url(#radialGradient260);stroke:none"
                         d="m 0.155,-89.54 c -21.9,0 -42.89,-1.08 -62.3,-3.04 -3.32,-0.34 -5.42,-3.78 -4.13,-6.86 10.87,-25.97 36.52,-44.21 66.44,-44.21 29.92,0 55.56,18.24 66.44,44.21 1.29,3.08 -0.81,6.52 -4.13,6.86 -19.41,1.97 -40.4,3.04 -62.31,3.04 z" /></g></g></g></g><g
                 id="g264"><g
                   id="g266"><g
                     id="g272"><g
                       id="g274"><path
                         id="path304"
                         style="fill:url(#radialGradient302);stroke:none"
                         d="m 98.735,188.86 c 24.676,0 44.68,-20.004 44.68,-44.68 0,-24.676 -20.004,-44.68 -44.68,-44.68 -24.676,0 -44.68,20.004 -44.68,44.68 0,24.676 20.004,44.68 44.68,44.68" /></g></g></g></g><g
                 id="g306"><g
                   id="g308"><g
                     id="g314"><g
                       id="g316"><path
                         id="path332"
                         style="fill:url(#radialGradient330);stroke:none"
                         d="m -0.485,75.45 c -5.35,0 -9.69,2.24 -9.69,5.69 0,40.03 32.56,72.59 72.59,72.59 5.35,0 9.69,-4.34 9.69,-9.69 0,-5.35 -4.34,-9.69 -9.69,-9.69 -29.34,0 -53.22,-23.87 -53.22,-53.22 0,-3.45 -4.34,-5.69 -9.69,-5.69 z" /></g></g></g></g><g
                 transform="translate(-64.815,-53.32)"
                 id="g334"><path
                   id="path336"
                   style="fill:#ff6101;fill-opacity:1;fill-rule:nonzero;stroke:none"
                   d="m 0,0 c 0,-8.28 -8.81,-12 -19.69,-12 -10.88,0 -19.69,3.72 -19.69,12 0,8.28 8.81,15 19.69,15 C -8.81,15 0,8.28 0,0" /></g><g
                 transform="translate(104.495,-53.32)"
                 id="g338"><path
                   id="path340"
                   style="fill:#ff6101;fill-opacity:1;fill-rule:nonzero;stroke:none"
                   d="m 0,0 c 0,-8.28 -8.81,-12 -19.69,-12 -10.88,0 -19.69,3.72 -19.69,12 0,8.28 8.81,15 19.69,15 C -8.81,15 0,8.28 0,0" /></g></g></g></g><g
           transform="translate(554.4097,446.3677)"
           id="g342"><path
             id="path344"
             style="fill:#ff4500;fill-opacity:1;fill-rule:nonzero;stroke:none"
             d="m 0,0 -18.513,-44.024 c -2.328,1.171 -7.877,2.481 -13.118,2.481 -5.241,0 -10.497,-1.31 -15.6,-3.792 -10.066,-5.102 -17.496,-15.307 -17.496,-30.028 v -80.619 h -46.074 V 0.894 h 44.764 v -22.012 h 0.879 c 10.497,13.996 26.529,24.34 47.385,24.34 7.584,0 14.875,-1.465 17.789,-3.207 z" /></g><g
           transform="translate(586.6108,382.7969)"
           id="g346"><path
             id="path348"
             style="fill:#ff4500;fill-opacity:1;fill-rule:nonzero;stroke:none"
             d="M 0,0 H 66.33 C 66.33,20.117 52.626,30.768 35.855,30.768 16.895,30.768 4.07,18.529 -0.015,0 Z m -41.111,-14.428 c 0,45.335 31.061,81.205 77.567,81.205 42.128,0 72.311,-30.768 72.311,-74.068 0,-7.584 -0.725,-14.721 -2.328,-21.58 H 0.879 c 4.809,-16.479 19.099,-29.304 40.525,-29.304 11.808,0 28.579,4.224 37.612,11.222 L 93.305,-81.358 C 80.034,-90.392 59.779,-94.77 41.99,-94.77 c -49.713,0 -83.101,32.079 -83.101,80.327 z" /></g><path
           id="path350"
           style="fill:#ff4500;fill-opacity:1;fill-rule:nonzero;stroke:none"
           d="m 1113.733,290.37 h -46.074 v 156.876 h 46.074 z m -23.029,227.353 c 15.461,0 28.132,-12.687 28.132,-28.133 0,-15.445 -12.687,-28.132 -28.132,-28.132 -15.445,0 -28.132,12.687 -28.132,28.132 0,15.446 12.687,28.133 28.132,28.133" /><g
           transform="translate(825.4014,327.7666)"
           id="g352"><path
             id="path354"
             style="fill:#ff4500;fill-opacity:1;fill-rule:nonzero;stroke:none"
             d="M 0,0 H -1.526 L -11.809,10.683 C -18.498,4.008 -27.654,0 -38.353,0 -60.92,0 -76.704,17.851 -76.704,41.003 c 0,23.153 15.784,41.003 38.351,41.003 C -15.785,82.006 0,64.156 0,41.003 Z m -2.189,187.12 -0.139,-82.516 h -0.879 c -12.687,12.101 -26.39,17.064 -44.317,17.064 -44.179,0 -73.482,-35.577 -73.482,-80.618 0,-45.042 27.407,-80.774 72.018,-80.774 18.667,0 36.301,6.412 47.677,20.995 h 1.31 V -37.396 H 43.885 V 187.12 Z" /></g><g
           transform="translate(1001.1445,327.7666)"
           id="g356"><path
             id="path358"
             style="fill:#ff4500;fill-opacity:1;fill-rule:nonzero;stroke:none"
             d="M 0,0 H -1.526 L -11.808,10.683 C -18.498,4.008 -27.654,0 -38.352,0 c -22.567,0 -38.352,17.851 -38.352,41.003 0,23.153 15.785,41.003 38.352,41.003 C -15.784,82.006 0,64.156 0,41.003 Z M -1.974,187.12 -2.112,104.604 H -2.99 c -12.687,12.101 -26.391,17.064 -44.318,17.064 -44.178,0 -73.482,-35.577 -73.482,-80.618 0,-45.042 27.407,-80.774 72.018,-80.774 18.667,0 36.301,6.412 47.677,20.995 H 0.216 V -37.396 H 44.102 V 187.12 Z" /></g><g
           transform="translate(1203.0928,447.2461)"
           id="g360"><path
             id="path362"
             style="fill:#ff4500;fill-opacity:1;fill-rule:nonzero;stroke:none"
             d="M 0,0 H 33.682 V -39.215 H 0 V -156.876 H -46.074 V -39.215 H -79.602 V 0 h 33.528 V 42.637 H 0 Z" /></g></g></g></g></svg>